{
date = "2013-02-06 09:46:33 +0000";
designer = "Geoffrey Rose";
familyName = "AutoFont";
featurePrefixes = (
{
automatic = 1;
code = "languagesystem DFLT dflt;\012languagesystem latn dflt;\012";
name = Languagesystems;
}
);
fontMaster = (
{
ascender = 750;
capHeight = 500;
descender = "-250";
id = "EDC2B6D3-8AFD-4373-943E-E515D75E943F";
xHeight = 250;
}
);
glyphs = (
{
glyphname = A;
lastChange = "2013-02-12 00:12:39 +0000";
layers = (
{
anchors = (
{
name = ogonek;
position = "{900, 10}";
},
{
name = top;
position = "{500, 500}";
}
);
layerId = "EDC2B6D3-8AFD-4373-943E-E515D75E943F";
name = Regular;
paths = (
{
closed = 1;
nodes = (
"851 321 OFFCURVE",
"827 403 OFFCURVE",
"773 416 CURVE SMOOTH",
"606 457 OFFCURVE",
"429 414 OFFCURVE",
"429 414 CURVE",
"303 281 LINE",
"205 269 LINE SMOOTH",
"93 253 OFFCURVE",
"22 237 OFFCURVE",
"4 176 CURVE SMOOTH",
"-8 138 OFFCURVE",
"12 87 OFFCURVE",
"4 52 CURVE",
"83 52 LINE",
"83 87 LINE SMOOTH",
"83 152 OFFCURVE",
"136 205 OFFCURVE",
"201 205 CURVE SMOOTH",
"266 205 OFFCURVE",
"318 152 OFFCURVE",
"318 87 CURVE SMOOTH",
"318 52 LINE",
"711 54 LINE",
"711 88 LINE SMOOTH",
"711 153 OFFCURVE",
"764 206 OFFCURVE",
"829 206 CURVE SMOOTH",
"894 206 OFFCURVE",
"946 153 OFFCURVE",
"946 88 CURVE SMOOTH",
"946 60 LINE",
"972 100 OFFCURVE",
"1005 115 OFFCURVE",
"996 150 CURVE SMOOTH",
"988 187 OFFCURVE",
"1048 297 OFFCURVE",
"891 290 CURVE"
);
},
{
closed = 1;
nodes = (
"329 280 LINE",
"442 403 LINE",
"442 403 OFFCURVE",
"547 414 OFFCURVE",
"597 410 CURVE",
"602 360 OFFCURVE",
"599 280 OFFCURVE",
"599 280 CURVE SMOOTH"
);
},
{
closed = 1;
nodes = (
"622 405 LINE",
"661 420 OFFCURVE",
"773 394 OFFCURVE",
"773 394 CURVE",
"842 275 LINE",
"628 275 LINE"
);
},
{
closed = 1;
nodes = (
"946 60 LINE",
"945 58 OFFCURVE",
"943 55 OFFCURVE",
"942 52 CURVE",
"946 54 LINE"
);
},
{
closed = 1;
nodes = (
"290 75 OFFCURVE",
"288 63 OFFCURVE",
"283 52 CURVE SMOOTH",
"270 20 OFFCURVE",
"238 -2 OFFCURVE",
"201 -2 CURVE SMOOTH",
"164 -2 OFFCURVE",
"132 20 OFFCURVE",
"119 52 CURVE SMOOTH",
"114 63 OFFCURVE",
"112 75 OFFCURVE",
"112 87 CURVE SMOOTH",
"112 136 OFFCURVE",
"152 176 OFFCURVE",
"201 176 CURVE SMOOTH",
"250 176 OFFCURVE",
"290 136 OFFCURVE",
"290 87 CURVE SMOOTH"
);
},
{
closed = 1;
nodes = (
"918 76 OFFCURVE",
"915 64 OFFCURVE",
"911 54 CURVE SMOOTH",
"897 22 OFFCURVE",
"865 -1 OFFCURVE",
"828 -1 CURVE SMOOTH",
"791 -1 OFFCURVE",
"760 22 OFFCURVE",
"746 54 CURVE SMOOTH",
"742 64 OFFCURVE",
"739 76 OFFCURVE",
"739 88 CURVE SMOOTH",
"739 138 OFFCURVE",
"779 178 OFFCURVE",
"828 178 CURVE SMOOTH",
"878 178 OFFCURVE",
"918 138 OFFCURVE",
"918 88 CURVE SMOOTH"
);
}
);
width = 1000;
}
);
unicode = 0041;
},
{
glyphname = B;
lastChange = "2013-02-12 01:26:47 +0000";
layers = (
{
anchors = (
{
name = bottom;
position = "{300, 0}";
},
{
name = top;
position = "{300, 250}";
}
);
layerId = "EDC2B6D3-8AFD-4373-943E-E515D75E943F";
name = Regular;
paths = (
{
closed = 1;
nodes = (
"990 223 OFFCURVE",
"969 219 OFFCURVE",
"973 163 CURVE",
"1018 109 OFFCURVE",
"970 58 OFFCURVE",
"956 46 CURVE",
"956 46 OFFCURVE",
"935 34 OFFCURVE",
"914 39 CURVE",
"928 147 OFFCURVE",
"875 196 OFFCURVE",
"808 196 CURVE SMOOTH",
"740 196 OFFCURVE",
"683 152 OFFCURVE",
"702 39 CURVE",
"305 39 LINE",
"324 150 OFFCURVE",
"266 196 OFFCURVE",
"199 196 CURVE SMOOTH",
"132 196 OFFCURVE",
"73 137 OFFCURVE",
"95 40 CURVE",
"71 40 OFFCURVE",
"-4 40 OFFCURVE",
"-4 40 CURVE",
"15 87 OFFCURVE",
"-18 128 OFFCURVE",
"-6 168 CURVE SMOOTH",
"14 230 OFFCURVE",
"87 251 OFFCURVE",
"203 268 CURVE SMOOTH",
"291 282 LINE",
"422 420 LINE",
"435 409 LINE",
"318 281 LINE",
"597 281 LINE",
"597 281 OFFCURVE",
"602 312 OFFCURVE",
"602 369 CURVE",
"605 387 LINE",
"701 388 OFFCURVE",
"744 356 OFFCURVE",
"857 293 CURVE",
"862 293 OFFCURVE",
"867 293 OFFCURVE",
"873 292 CURVE",
"907 292 LINE",
"949 303 OFFCURVE",
"955 337 OFFCURVE",
"955 337 CURVE",
"993 337 LINE",
"993 337 OFFCURVE",
"993 312 OFFCURVE",
"993 292 CURVE"
);
},
{
closed = 1;
nodes = (
"291 80 OFFCURVE",
"289 68 OFFCURVE",
"284 57 CURVE SMOOTH",
"270 23 OFFCURVE",
"237 0 OFFCURVE",
"199 0 CURVE SMOOTH",
"160 0 OFFCURVE",
"128 23 OFFCURVE",
"114 57 CURVE SMOOTH",
"109 68 OFFCURVE",
"106 80 OFFCURVE",
"106 93 CURVE SMOOTH",
"106 144 OFFCURVE",
"148 185 OFFCURVE",
"199 185 CURVE SMOOTH",
"250 185 OFFCURVE",
"291 144 OFFCURVE",
"291 93 CURVE SMOOTH"
);
},
{
closed = 1;
nodes = (
"900 80 OFFCURVE",
"897 68 OFFCURVE",
"892 57 CURVE SMOOTH",
"878 23 OFFCURVE",
"846 0 OFFCURVE",
"807 0 CURVE SMOOTH",
"769 0 OFFCURVE",
"736 23 OFFCURVE",
"722 57 CURVE SMOOTH",
"717 68 OFFCURVE",
"715 80 OFFCURVE",
"715 93 CURVE SMOOTH",
"715 144 OFFCURVE",
"756 185 OFFCURVE",
"807 185 CURVE SMOOTH",
"858 185 OFFCURVE",
"900 144 OFFCURVE",
"900 93 CURVE SMOOTH"
);
}
);
width = 1000;
}
);
unicode = 0042;
},
{
glyphname = C;
lastChange = "2013-02-06 10:21:45 +0000";
layers = (
{
anchors = (
{
name = bottom;
position = "{128, 0}";
},
{
name = top;
position = "{128, 128}";
}
);
layerId = "EDC2B6D3-8AFD-4373-943E-E515D75E943F";
name = Regular;
paths = (
{
closed = 1;
nodes = (
"707 501 OFFCURVE",
"471 421 OFFCURVE",
"471 421 CURVE",
"342 286 LINE",
"212 279 LINE",
"98 262 OFFCURVE",
"26 246 OFFCURVE",
"7 185 CURVE SMOOTH",
"-5 145 OFFCURVE",
"15 93 OFFCURVE",
"7 58 CURVE",
"88 58 LINE",
"88 93 LINE SMOOTH",
"88 160 OFFCURVE",
"142 213 OFFCURVE",
"208 213 CURVE SMOOTH",
"274 213 OFFCURVE",
"328 160 OFFCURVE",
"328 93 CURVE SMOOTH",
"328 58 LINE",
"688 58 LINE",
"688 93 LINE SMOOTH",
"688 160 OFFCURVE",
"742 213 OFFCURVE",
"808 213 CURVE SMOOTH",
"874 213 OFFCURVE",
"928 160 OFFCURVE",
"928 93 CURVE SMOOTH",
"928 58 LINE",
"964 58 LINE",
"991 105 OFFCURVE",
"1002 121 OFFCURVE",
"993 159 CURVE SMOOTH",
"984 197 OFFCURVE",
"1059 304 OFFCURVE",
"899 296 CURVE"
);
},
{
closed = 1;
nodes = (
"368 285 LINE",
"484 410 LINE",
"484 410 OFFCURVE",
"586 428 OFFCURVE",
"637 415 CURVE",
"653 370 OFFCURVE",
"643 285 OFFCURVE",
"643 285 CURVE SMOOTH"
);
},
{
closed = 1;
nodes = (
"299 81 OFFCURVE",
"297 69 OFFCURVE",
"292 58 CURVE SMOOTH",
"278 25 OFFCURVE",
"246 2 OFFCURVE",
"208 2 CURVE SMOOTH",
"170 2 OFFCURVE",
"138 25 OFFCURVE",
"124 58 CURVE SMOOTH",
"119 69 OFFCURVE",
"117 81 OFFCURVE",
"117 93 CURVE SMOOTH",
"117 144 OFFCURVE",
"158 185 OFFCURVE",
"208 185 CURVE SMOOTH",
"258 185 OFFCURVE",
"299 144 OFFCURVE",
"299 93 CURVE SMOOTH"
);
},
{
closed = 1;
nodes = (
"899 81 OFFCURVE",
"896 69 OFFCURVE",
"892 58 CURVE SMOOTH",
"878 25 OFFCURVE",
"845 2 OFFCURVE",
"808 2 CURVE SMOOTH",
"770 2 OFFCURVE",
"737 25 OFFCURVE",
"724 58 CURVE SMOOTH",
"719 69 OFFCURVE",
"716 81 OFFCURVE",
"716 93 CURVE SMOOTH",
"716 144 OFFCURVE",
"757 185 OFFCURVE",
"808 185 CURVE SMOOTH",
"858 185 OFFCURVE",
"899 144 OFFCURVE",
"899 93 CURVE SMOOTH"
);
}
);
width = 1000;
}
);
unicode = 0043;
},
{
glyphname = D;
lastChange = "2013-02-12 01:26:51 +0000";
layers = (
{
anchors = (
{
name = bottom;
position = "{500, 0}";
},
{
name = center;
position = "{500, 125}";
},
{
name = top;
position = "{500, 500}";
}
);
layerId = "EDC2B6D3-8AFD-4373-943E-E515D75E943F";
name = Regular;
paths = (
{
closed = 1;
nodes = (
"296.334 88.1754 OFFCURVE",
"293.49 74.7261 OFFCURVE",
"288.293 62.4986 CURVE SMOOTH",
"272.781 25.7666 OFFCURVE",
"236.42 0 OFFCURVE",
"194.048 0 CURVE SMOOTH",
"151.66 0 OFFCURVE",
"115.296 25.7666 OFFCURVE",
"99.7965 62.4986 CURVE SMOOTH",
"94.5972 74.7261 OFFCURVE",
"91.734 88.1754 OFFCURVE",
"91.734 102.285 CURVE SMOOTH",
"91.734 121.292 OFFCURVE",
"96.9215 139.067 OFFCURVE",
"105.945 154.319 CURVE SMOOTH",
"108.187 158.114 OFFCURVE",
"110.671 161.75 OFFCURVE",
"113.375 165.214 CURVE SMOOTH",
"132.091 189.178 OFFCURVE",
"161.263 204.6 OFFCURVE",
"194.048 204.6 CURVE SMOOTH",
"223.211 204.6 OFFCURVE",
"249.527 192.393 OFFCURVE",
"268.144 172.815 CURVE SMOOTH",
"273.462 167.227 OFFCURVE",
"278.148 161.048 OFFCURVE",
"282.103 154.369 CURVE SMOOTH",
"291.146 139.117 OFFCURVE",
"296.334 121.312 OFFCURVE",
"296.334 102.285 CURVE SMOOTH"
);
},
{
closed = 1;
nodes = (
"918.496 88.1754 OFFCURVE",
"915.652 74.7261 OFFCURVE",
"910.455 62.4986 CURVE SMOOTH",
"894.943 25.7666 OFFCURVE",
"858.582 0 OFFCURVE",
"816.211 0 CURVE SMOOTH",
"773.81 0 OFFCURVE",
"737.459 25.7666 OFFCURVE",
"721.947 62.4986 CURVE SMOOTH",
"716.759 74.7261 OFFCURVE",
"713.896 88.1754 OFFCURVE",
"713.896 102.285 CURVE SMOOTH",
"713.896 121.292 OFFCURVE",
"719.084 139.067 OFFCURVE",
"728.095 154.319 CURVE SMOOTH",
"745.902 184.411 OFFCURVE",
"778.697 204.6 OFFCURVE",
"816.211 204.6 CURVE SMOOTH",
"853.693 204.6 OFFCURVE",
"886.461 184.441 OFFCURVE",
"904.265 154.369 CURVE SMOOTH",
"913.298 139.117 OFFCURVE",
"918.496 121.312 OFFCURVE",
"918.496 102.285 CURVE SMOOTH"
);
},
{
closed = 1;
nodes = (
"918.496 88.1754 OFFCURVE",
"915.652 74.7261 OFFCURVE",
"910.455 62.4986 CURVE SMOOTH",
"894.943 25.7666 OFFCURVE",
"858.582 0 OFFCURVE",
"816.211 0 CURVE SMOOTH",
"773.81 0 OFFCURVE",
"737.459 25.7666 OFFCURVE",
"721.947 62.4986 CURVE SMOOTH",
"716.759 74.7261 OFFCURVE",
"713.896 88.1754 OFFCURVE",
"713.896 102.285 CURVE SMOOTH",
"713.896 121.292 OFFCURVE",
"719.084 139.067 OFFCURVE",
"728.095 154.319 CURVE SMOOTH",
"745.902 184.411 OFFCURVE",
"778.697 204.6 OFFCURVE",
"816.211 204.6 CURVE SMOOTH",
"853.693 204.6 OFFCURVE",
"886.461 184.441 OFFCURVE",
"904.265 154.369 CURVE SMOOTH",
"913.298 139.117 OFFCURVE",
"918.496 121.312 OFFCURVE",
"918.496 102.285 CURVE SMOOTH"
);
},
{
closed = 0;
nodes = (
"707.636 93.2422 LINE",
"699.947 93.2422 LINE"
);
},
{
closed = 0;
nodes = (
"308.441 93.2422 LINE",
"300.58 93.2422 LINE"
);
},
{
closed = 1;
nodes = (
"992.992 168.189 OFFCURVE",
"994.545 171.563 OFFCURVE",
"979.882 171.563 CURVE",
"979.882 201.736 OFFCURVE",
"979.882 287.988 OFFCURVE",
"979.882 287.988 CURVE SMOOTH",
"972.543 287.988 LINE",
"979.882 288.058 LINE",
"979.853 307.025 OFFCURVE",
"979.882 331.78 OFFCURVE",
"979.882 331.78 CURVE SMOOTH",
"942.992 331.78 LINE SMOOTH",
"942.992 331.78 OFFCURVE",
"936.712 298.783 OFFCURVE",
"895.013 287.988 CURVE",
"765.298 287.988 LINE SMOOTH",
"709.33 287.988 OFFCURVE",
"665.037 287.988 OFFCURVE",
"665.037 287.988 CURVE",
"666.689 388.761 LINE SMOOTH",
"666.689 408.86 OFFCURVE",
"666.689 423.41 OFFCURVE",
"666.689 423.41 CURVE SMOOTH",
"467.127 423.41 LINE",
"314.109 287.418 LINE",
"305.337 287.418 OFFCURVE",
"264.709 283.261 OFFCURVE",
"223.652 278.455 CURVE",
"223.642 278.455 OFFCURVE",
"223.642 278.455 OFFCURVE",
"223.63 278.455 CURVE",
"181.171 284.083 OFFCURVE",
"119.302 281.128 OFFCURVE",
"119.302 281.128 CURVE",
"124.07 264.485 LINE",
"125.382 264.575 LINE",
"71.4351 253.239 OFFCURVE",
"40.3707 234.933 OFFCURVE",
"37.8472 229.135 CURVE SMOOTH",
"27.7027 205.892 OFFCURVE",
"27.0621 181.227 OFFCURVE",
"23.3179 172.555 CURVE SMOOTH",
"22.6871 171.113 OFFCURVE",
"17.0484 159.376 OFFCURVE",
"5.1402 151.695 CURVE SMOOTH",
"-4 146.067 OFFCURVE",
"0.605048 76.7188 OFFCURVE",
"4.55036 67.1255 CURVE SMOOTH",
"7.62458 59.6744 OFFCURVE",
"71.5562 63.7105 OFFCURVE",
"80.5386 64.3214 CURVE",
"76.5425 76.2481 OFFCURVE",
"74.3785 89.0162 OFFCURVE",
"74.3785 102.285 CURVE SMOOTH",
"74.3785 124.516 OFFCURVE",
"80.439 145.306 OFFCURVE",
"90.9937 163.141 CURVE SMOOTH",
"111.822 198.351 OFFCURVE",
"150.177 221.955 OFFCURVE",
"194.048 221.955 CURVE SMOOTH",
"237.89 221.955 OFFCURVE",
"276.226 198.381 OFFCURVE",
"297.045 163.211 CURVE SMOOTH",
"307.619 145.366 OFFCURVE",
"313.699 124.537 OFFCURVE",
"313.699 102.285 CURVE SMOOTH",
"313.699 99.2408 OFFCURVE",
"313.587 96.2261 OFFCURVE",
"313.359 93.2422 CURVE SMOOTH",
"312.658 83.7789 OFFCURVE",
"310.845 74.606 OFFCURVE",
"308.05 65.8834 CURVE",
"439.166 64.9019 OFFCURVE",
"702.461 64.9019 OFFCURVE",
"702.461 64.9019 CURVE",
"702.441 65.0123 OFFCURVE",
"702.429 65.1124 OFFCURVE",
"702.41 65.2222 CURVE",
"702.41 65.2325 OFFCURVE",
"702.41 65.2325 OFFCURVE",
"702.41 65.2422 CURVE",
"699.486 74.1553 OFFCURVE",
"697.603 83.5386 OFFCURVE",
"696.882 93.2422 CURVE SMOOTH",
"696.652 96.2261 OFFCURVE",
"696.541 99.2408 OFFCURVE",
"696.541 102.285 CURVE SMOOTH",
"696.541 124.516 OFFCURVE",
"702.599 145.306 OFFCURVE",
"713.154 163.141 CURVE SMOOTH",
"733.974 198.351 OFFCURVE",
"772.328 221.955 OFFCURVE",
"816.211 221.955 CURVE SMOOTH",
"860.052 221.955 OFFCURVE",
"898.377 198.381 OFFCURVE",
"919.207 163.211 CURVE SMOOTH",
"929.783 145.366 OFFCURVE",
"935.849 124.537 OFFCURVE",
"935.849 102.285 CURVE SMOOTH",
"935.849 88.4156 OFFCURVE",
"933.507 75.0865 OFFCURVE",
"929.13 62.6988 CURVE",
"929.13 62.689 OFFCURVE",
"929.13 62.689 OFFCURVE",
"929.13 62.6788 CURVE",
"974.345 86.9332 LINE",
"991.791 91.3795 OFFCURVE",
"1004.27 142.252 OFFCURVE",
"998.628 155.22 CURVE SMOOTH"
);
},
{
closed = 1;
nodes = (
"637.939 397.013 LINE",
"636.287 288.209 LINE",
"353.816 288.209 LINE",
"476.791 397.013 LINE"
);
}
);
width = 1000;
}
);
unicode = 0044;
},
{
glyphname = E;
lastChange = "2013-02-12 01:27:19 +0000";
layers = (
{
anchors = (
{
name = bottom;
position = "{500, 0}";
},
{
name = center;
position = "{300, 250}";
},
{
name = ogonek;
position = "{900, 10}";
},
{
name = top;
position = "{300, 500}";
}
);
layerId = "EDC2B6D3-8AFD-4373-943E-E515D75E943F";
name = Regular;
paths = (
{
closed = 1;
nodes = (
"724 521 OFFCURVE",
"416 440 OFFCURVE",
"416 440 CURVE",
"297 286 LINE",
"225 283 LINE",
"102 265 OFFCURVE",
"24 247 OFFCURVE",
"4 181 CURVE SMOOTH",
"-9 138 OFFCURVE",
"13 82 OFFCURVE",
"4 44 CURVE",
"106 44 LINE",
"106 82 LINE SMOOTH",
"106 154 OFFCURVE",
"149 212 OFFCURVE",
"221 212 CURVE SMOOTH",
"292 212 OFFCURVE",
"339 154 OFFCURVE",
"339 82 CURVE SMOOTH",
"339 44 LINE",
"692 44 LINE",
"692 82 LINE SMOOTH",
"692 154 OFFCURVE",
"737 212 OFFCURVE",
"809 212 CURVE SMOOTH",
"880 212 OFFCURVE",
"921 154 OFFCURVE",
"921 82 CURVE SMOOTH",
"921 44 LINE",
"976 44 LINE",
"1005 95 OFFCURVE",
"1000 113 OFFCURVE",
"999 155 CURVE SMOOTH",
"997 220 OFFCURVE",
"1009 253 OFFCURVE",
"950 334 CURVE"
);
},
{
closed = 1;
nodes = (
"326 285 LINE",
"430 428 LINE",
"430 428 OFFCURVE",
"583 445 OFFCURVE",
"638 430 CURVE",
"637 377 OFFCURVE",
"631 289 OFFCURVE",
"631 289 CURVE SMOOTH"
);
},
{
closed = 1;
nodes = (
"319 83 OFFCURVE",
"316 70 OFFCURVE",
"311 58 CURVE SMOOTH",
"296 23 OFFCURVE",
"262 -2 OFFCURVE",
"221 -2 CURVE SMOOTH",
"180 -2 OFFCURVE",
"145 23 OFFCURVE",
"130 58 CURVE SMOOTH",
"125 70 OFFCURVE",
"122 83 OFFCURVE",
"122 96 CURVE SMOOTH",
"122 151 OFFCURVE",
"166 195 OFFCURVE",
"221 195 CURVE SMOOTH",
"275 195 OFFCURVE",
"319 151 OFFCURVE",
"319 96 CURVE SMOOTH"
);
},
{
closed = 1;
nodes = (
"906 83 OFFCURVE",
"904 70 OFFCURVE",
"899 58 CURVE SMOOTH",
"884 23 OFFCURVE",
"849 -2 OFFCURVE",
"808 -2 CURVE SMOOTH",
"767 -2 OFFCURVE",
"732 23 OFFCURVE",
"717 58 CURVE SMOOTH",
"712 70 OFFCURVE",
"710 83 OFFCURVE",
"710 96 CURVE SMOOTH",
"710 151 OFFCURVE",
"754 195 OFFCURVE",
"808 195 CURVE SMOOTH",
"862 195 OFFCURVE",
"906 151 OFFCURVE",
"906 96 CURVE SMOOTH"
);
}
);
width = 1000;
}
);
unicode = 0045;
},
{
glyphname = F;
lastChange = "2013-02-12 01:26:58 +0000";
layers = (
{
anchors = (
{
name = bottom;
position = "{300, 0}";
},
{
name = center;
position = "{300, 250}";
},
{
name = top;
position = "{300, 500}";
}
);
layerId = "EDC2B6D3-8AFD-4373-943E-E515D75E943F";
name = Regular;
paths = (
{
closed = 1;
nodes = (
"297 92 OFFCURVE",
"294 78 OFFCURVE",
"289 66 CURVE SMOOTH",
"274 29 OFFCURVE",
"237 4 OFFCURVE",
"195 4 CURVE SMOOTH",
"153 4 OFFCURVE",
"117 29 OFFCURVE",
"101 66 CURVE SMOOTH",
"96 78 OFFCURVE",
"93 92 OFFCURVE",
"93 106 CURVE SMOOTH",
"93 125 OFFCURVE",
"98 142 OFFCURVE",
"107 158 CURVE SMOOTH",
"125 188 OFFCURVE",
"158 208 OFFCURVE",
"195 208 CURVE SMOOTH",
"233 208 OFFCURVE",
"265 188 OFFCURVE",
"283 158 CURVE SMOOTH",
"292 142 OFFCURVE",
"297 125 OFFCURVE",
"297 106 CURVE SMOOTH"
);
},
{
closed = 1;
nodes = (
"921 92 OFFCURVE",
"918 78 OFFCURVE",
"913 66 CURVE SMOOTH",
"898 29 OFFCURVE",
"861 4 OFFCURVE",
"819 4 CURVE SMOOTH",
"777 4 OFFCURVE",
"740 29 OFFCURVE",
"725 66 CURVE SMOOTH",
"720 78 OFFCURVE",
"717 92 OFFCURVE",
"717 106 CURVE SMOOTH",
"717 125 OFFCURVE",
"722 142 OFFCURVE",
"731 158 CURVE SMOOTH",
"749 188 OFFCURVE",
"782 208 OFFCURVE",
"819 208 CURVE SMOOTH",
"857 208 OFFCURVE",
"889 188 OFFCURVE",
"907 158 CURVE SMOOTH",
"916 142 OFFCURVE",
"921 125 OFFCURVE",
"921 106 CURVE SMOOTH"
);
},
{
closed = 0;
nodes = (
"302 146 LINE",
"708 146 LINE"
);
},
{
closed = 1;
nodes = (
"993 226 OFFCURVE",
"995 229 OFFCURVE",
"980 229 CURVE",
"980 259 OFFCURVE",
"980 345 OFFCURVE",
"980 345 CURVE SMOOTH",
"766 345 LINE SMOOTH",
"710 345 OFFCURVE",
"665 345 OFFCURVE",
"665 345 CURVE",
"665 461 LINE SMOOTH",
"665 481 OFFCURVE",
"665 496 OFFCURVE",
"665 496 CURVE SMOOTH",
"466 496 LINE",
"315 345 LINE",
"262 345 OFFCURVE",
"51 333 OFFCURVE",
"45 318 CURVE SMOOTH",
"35 295 OFFCURVE",
"30 258 OFFCURVE",
"27 250 CURVE SMOOTH",
"26 248 OFFCURVE",
"20 237 OFFCURVE",
"8 229 CURVE SMOOTH",
"0 223 OFFCURVE",
"-2 174 OFFCURVE",
"2 164 CURVE SMOOTH",
"5 156 OFFCURVE",
"86 162 OFFCURVE",
"86 162 CURVE",
"102 206 OFFCURVE",
"145 238 OFFCURVE",
"195 238 CURVE SMOOTH",
"245 238 OFFCURVE",
"288 206 OFFCURVE",
"304 162 CURVE",
"304 162 OFFCURVE",
"304 162 OFFCURVE",
"304 162 CURVE",
"708 162 LINE",
"724 206 OFFCURVE",
"767 238 OFFCURVE",
"817 238 CURVE SMOOTH",
"867 238 OFFCURVE",
"910 206 OFFCURVE",
"926 162 CURVE",
"975 168 LINE",
"992 173 OFFCURVE",
"1004 200 OFFCURVE",
"999 213 CURVE SMOOTH"
);
},
{
closed = 1;
nodes = (
"355 345 LINE",
"476 469 LINE",
"637 469 LINE",
"637 345 LINE"
);
}
);
width = 1000;
}
);
unicode = 0046;
},
{
glyphname = G;
lastChange = "2013-02-12 01:27:10 +0000";
layers = (
{
anchors = (
{
name = bottom;
position = "{500, 0}";
},
{
name = top;
position = "{500, 500}";
}
);
layerId = "EDC2B6D3-8AFD-4373-943E-E515D75E943F";
name = Regular;
paths = (
{
closed = 1;
nodes = (
"281 77 OFFCURVE",
"278 64 OFFCURVE",
"273 53 CURVE SMOOTH",
"259 18 OFFCURVE",
"225 -6 OFFCURVE",
"185 -6 CURVE SMOOTH",
"145 -6 OFFCURVE",
"111 18 OFFCURVE",
"96 53 CURVE SMOOTH",
"91 64 OFFCURVE",
"89 77 OFFCURVE",
"89 90 CURVE SMOOTH",
"89 108 OFFCURVE",
"94 125 OFFCURVE",
"102 139 CURVE SMOOTH",
"119 167 OFFCURVE",
"150 186 OFFCURVE",
"185 186 CURVE SMOOTH",
"220 186 OFFCURVE",
"251 167 OFFCURVE",
"268 139 CURVE SMOOTH",
"276 125 OFFCURVE",
"281 108 OFFCURVE",
"281 90 CURVE SMOOTH"
);
},
{
closed = 1;
nodes = (
"928 72 OFFCURVE",
"925 59 OFFCURVE",
"920 48 CURVE SMOOTH",
"906 13 OFFCURVE",
"872 -11 OFFCURVE",
"832 -11 CURVE SMOOTH",
"792 -11 OFFCURVE",
"758 13 OFFCURVE",
"743 48 CURVE SMOOTH",
"738 59 OFFCURVE",
"736 72 OFFCURVE",
"736 85 CURVE SMOOTH",
"736 103 OFFCURVE",
"740 119 OFFCURVE",
"749 134 CURVE SMOOTH",
"766 162 OFFCURVE",
"796 181 OFFCURVE",
"832 181 CURVE SMOOTH",
"867 181 OFFCURVE",
"898 162 OFFCURVE",
"914 134 CURVE SMOOTH",
"923 120 OFFCURVE",
"928 103 OFFCURVE",
"928 85 CURVE SMOOTH"
);
},
{
closed = 0;
nodes = (
"294 137 LINE",
"718 137 LINE"
);
},
{
closed = 1;
nodes = (
"1000 174 OFFCURVE",
"995 250 OFFCURVE",
"996 314 CURVE SMOOTH",
"1000 470 OFFCURVE",
"1004 475 OFFCURVE",
"719 494 CURVE SMOOTH",
"636 500 OFFCURVE",
"494 500 OFFCURVE",
"370 475 CURVE",
"329 435 OFFCURVE",
"241 314 OFFCURVE",
"241 314 CURVE SMOOTH",
"186 314 OFFCURVE",
"89 299 OFFCURVE",
"34 275 CURVE SMOOTH",
"9 265 OFFCURVE",
"11 182 OFFCURVE",
"6 168 CURVE SMOOTH",
"-6 138 OFFCURVE",
"3 83 OFFCURVE",
"7 73 CURVE SMOOTH",
"11 64 OFFCURVE",
"67 71 OFFCURVE",
"67 71 CURVE",
"67 176 OFFCURVE",
"132 209 OFFCURVE",
"184 209 CURVE SMOOTH",
"237 209 OFFCURVE",
"303 178 OFFCURVE",
"303 70 CURVE",
"303 69 OFFCURVE",
"713 70 OFFCURVE",
"713 70 CURVE",
"713 165 OFFCURVE",
"781 203 OFFCURVE",
"833 203 CURVE SMOOTH",
"886 203 OFFCURVE",
"950 163 OFFCURVE",
"949 70 CURVE",
"949 70 OFFCURVE",
"1026 68 OFFCURVE",
"991 128 CURVE"
);
},
{
closed = 1;
nodes = (
"275 312 LINE SMOOTH",
"275 312 OFFCURVE",
"345 416 OFFCURVE",
"377 453 CURVE",
"476 479 OFFCURVE",
"580 472 OFFCURVE",
"580 472 CURVE",
"552 315 LINE"
);
}
);
width = 1000;
}
);
unicode = 0047;
},
{
glyphname = a;
lastChange = "2013-02-12 01:31:17 +0000";
layers = (
{
anchors = (
{
name = ogonek;
position = "{540, 10}";
},
{
name = top;
position = "{300, 250}";
}
);
layerId = "EDC2B6D3-8AFD-4373-943E-E515D75E943F";
name = Regular;
paths = (
{
closed = 1;
nodes = (
"-4 117.771 OFFCURVE",
"28.6701 102.221 OFFCURVE",
"54.2502 62.3701 CURVE",
"54.2502 90.7705 LINE SMOOTH",
"54.2502 155.721 OFFCURVE",
"106.891 208.36 OFFCURVE",
"171.821 208.36 CURVE SMOOTH",
"236.75 208.36 OFFCURVE",
"289.41 155.721 OFFCURVE",
"289.41 90.7705 CURVE SMOOTH",
"289.41 56.0205 LINE",
"682.25 54.6006 LINE",
"682.25 89.3506 LINE SMOOTH",
"682.25 154.3 OFFCURVE",
"734.891 206.94 OFFCURVE",
"799.821 206.94 CURVE SMOOTH",
"864.77 206.94 OFFCURVE",
"917.41 154.3 OFFCURVE",
"917.41 89.3506 CURVE SMOOTH",
"917.41 54.6006 LINE",
"996.9 54.6006 LINE",
"989.041 89.3604 OFFCURVE",
"1008.61 140.25 OFFCURVE",
"996.9 178.721 CURVE SMOOTH",
"978.55 239.021 OFFCURVE",
"908.16 254.86 OFFCURVE",
"795.58 271.25 CURVE SMOOTH",
"697.24 282.94 LINE",
"571.34 416.08 LINE",
"571.34 416.08 OFFCURVE",
"395.23 459.7 OFFCURVE",
"228.06 418.49 CURVE SMOOTH",
"173.721 405.1 OFFCURVE",
"149.49 323.34 OFFCURVE",
"109.77 291.93 CURVE",
"-47 299.35 OFFCURVE",
"12.9397 189.41 OFFCURVE",
"4.25998 152.511 CURVE SMOOTH"
);
},
{
closed = 1;
nodes = (
"453.34 416.51 OFFCURVE",
"558.58 404.961 OFFCURVE",
"558.58 404.961 CURVE",
"671.55 281.85 LINE",
"402.02 282.271 LINE SMOOTH",
"402.02 282.271 OFFCURVE",
"398.38 362.551 OFFCURVE",
"404.05 412.18 CURVE"
);
},
{
closed = 1;
nodes = (
"227.67 396.49 LINE",
"227.67 396.49 OFFCURVE",
"339.38 422.36 OFFCURVE",
"379.06 407.67 CURVE",
"373.18 277.07 LINE",
"158.59 277.07 LINE"
);
},
{
closed = 1;
nodes = (
"57.4299 57.29 OFFCURVE",
"55.8498 59.8799 OFFCURVE",
"54.2502 62.3701 CURVE",
"54.2502 56.0205 LINE",
"58.9612 54.6006 LINE"
);
},
{
closed = 1;
nodes = (
"710.468 77.0186 OFFCURVE",
"712.965 65.2754 OFFCURVE",
"717.502 54.5947 CURVE SMOOTH",
"731.047 22.5107 OFFCURVE",
"762.805 0 OFFCURVE",
"799.817 0 CURVE SMOOTH",
"836.849 0 OFFCURVE",
"868.608 22.5107 OFFCURVE",
"882.153 54.5947 CURVE SMOOTH",
"886.689 65.2754 OFFCURVE",
"889.186 77.0186 OFFCURVE",
"889.186 89.3486 CURVE SMOOTH",
"889.186 138.713 OFFCURVE",
"849.18 178.719 OFFCURVE",
"799.817 178.719 CURVE SMOOTH",
"750.475 178.719 OFFCURVE",
"710.468 138.713 OFFCURVE",
"710.468 89.3486 CURVE SMOOTH"
);
},
{
closed = 1;
nodes = (
"82.9748 78.4424 OFFCURVE",
"85.4709 66.6992 OFFCURVE",
"90.008 56.0186 CURVE SMOOTH",
"103.555 23.9346 OFFCURVE",
"135.311 1.4248 OFFCURVE",
"172.322 1.4248 CURVE SMOOTH",
"209.354 1.4248 OFFCURVE",
"241.115 23.9346 OFFCURVE",
"254.659 56.0186 CURVE SMOOTH",
"259.196 66.6992 OFFCURVE",
"261.694 78.4424 OFFCURVE",
"261.694 90.7725 CURVE SMOOTH",
"261.694 140.137 OFFCURVE",
"221.688 180.143 OFFCURVE",
"172.322 180.143 CURVE SMOOTH",
"122.981 180.143 OFFCURVE",
"82.9748 140.137 OFFCURVE",
"82.9748 90.7725 CURVE SMOOTH"
);
}
);
width = 1000;
}
);
unicode = 0061;
},
{
glyphname = b;
lastChange = "2013-02-12 01:31:34 +0000";
layers = (
{
layerId = "EDC2B6D3-8AFD-4373-943E-E515D75E943F";
name = Regular;
paths = (
{
closed = 0;
nodes = (
"0 292.325 LINE",
"2.80957 222.65 OFFCURVE",
"24.1172 218.709 OFFCURVE",
"20.0586 162.786 CURVE",
"-26 109.011 OFFCURVE",
"22.7656 57.54 OFFCURVE",
"36.5361 46.4404 CURVE",
"36.5361 46.4404 OFFCURVE",
"57.4482 33.7646 OFFCURVE",
"78.9082 39.1123 CURVE",
"64.7031 147.344 OFFCURVE",
"117.718 195.539 OFFCURVE",
"184.948 195.539 CURVE SMOOTH",
"252.178 195.539 OFFCURVE",
"309.231 152.082 OFFCURVE",
"290.41 39.1123 CURVE",
"687.357 39.1123 LINE",
"668.414 150.053 OFFCURVE",
"726.614 195.539 OFFCURVE",
"793.844 195.539 CURVE SMOOTH",
"861.095 195.539 OFFCURVE",
"920.045 136.518 OFFCURVE",
"897.723 39.792 CURVE",
"922.074 39.792 OFFCURVE",
"995.869 39.792 OFFCURVE",
"995.869 39.792 CURVE",
"977.544 87.1953 OFFCURVE",
"1009.28 127.812 OFFCURVE",
"997.157 167.637 CURVE SMOOTH",
"978.152 230.077 OFFCURVE",
"906.053 250.775 OFFCURVE",
"789.491 267.751 CURVE SMOOTH",
"701.318 282.179 LINE",
"570.958 420.028 LINE",
"557.747 408.512 LINE",
"674.725 281.042 LINE",
"395.638 281.479 LINE SMOOTH",
"395.638 281.479 OFFCURVE",
"390.91 312.223 OFFCURVE",
"391.092 368.931 CURVE",
"387.866 387.306 LINE",
"291.982 387.813 OFFCURVE",
"248.353 355.853 OFFCURVE",
"135.94 292.66 CURVE",
"130.441 292.66 OFFCURVE",
"125.165 292.548 OFFCURVE",
"120.102 292.325 CURVE",
"86.1113 292.325 LINE",
"43.8018 303.283 OFFCURVE",
"37.4297 336.767 OFFCURVE",
"37.4297 336.767 CURVE SMOOTH",
"0 336.767 LINE SMOOTH",
"0 336.767 OFFCURVE",
"0.0292969 311.645 OFFCURVE",
"0 292.396 CURVE SMOOTH"
);
},
{
closed = 1;
nodes = (
"701.314 79.748 OFFCURVE",
"703.899 67.5889 OFFCURVE",
"708.597 56.5283 CURVE SMOOTH",
"722.624 23.3086 OFFCURVE",
"755.507 0 OFFCURVE",
"793.829 0 CURVE SMOOTH",
"832.173 0 OFFCURVE",
"865.058 23.3086 OFFCURVE",
"879.082 56.5283 CURVE SMOOTH",
"883.779 67.5889 OFFCURVE",
"886.365 79.748 OFFCURVE",
"886.365 92.5146 CURVE SMOOTH",
"886.365 143.627 OFFCURVE",
"844.941 185.051 OFFCURVE",
"793.829 185.051 CURVE SMOOTH",
"742.738 185.051 OFFCURVE",
"701.314 143.627 OFFCURVE",
"701.314 92.5146 CURVE SMOOTH"
);
},
{
closed = 1;
nodes = (
"92.9434 79.748 OFFCURVE",
"95.5283 67.5889 OFFCURVE",
"100.227 56.5283 CURVE SMOOTH",
"114.252 23.3086 OFFCURVE",
"147.135 0 OFFCURVE",
"185.457 0 CURVE SMOOTH",
"223.802 0 OFFCURVE",
"256.688 23.3086 OFFCURVE",
"270.712 56.5283 CURVE SMOOTH",
"275.408 67.5889 OFFCURVE",
"277.994 79.748 OFFCURVE",
"277.994 92.5146 CURVE SMOOTH",
"277.994 143.627 OFFCURVE",
"236.57 185.051 OFFCURVE",
"185.457 185.051 CURVE SMOOTH",
"134.367 185.051 OFFCURVE",
"92.9434 143.627 OFFCURVE",
"92.9434 92.5146 CURVE SMOOTH"
);
}
);
width = 1000;
}
);
unicode = 0062;
},
{
glyphname = c;
lastChange = "2013-02-12 01:31:55 +0000";
layers = (
{
anchors = (
{
name = bottom;
position = "{300, 0}";
},
{
name = top;
position = "{300, 250}";
}
);
layerId = "EDC2B6D3-8AFD-4373-943E-E515D75E943F";
name = Regular;
paths = (
{
closed = 1;
nodes = (
"1.26196 119.025 OFFCURVE",
"12.3411 102.41 OFFCURVE",
"38.9202 55.7148 CURVE",
"74.8782 55.7148 LINE",
"74.8782 91.1777 LINE SMOOTH",
"74.8782 157.457 OFFCURVE",
"128.598 211.176 OFFCURVE",
"194.855 211.176 CURVE SMOOTH",
"261.113 211.176 OFFCURVE",
"314.853 157.457 OFFCURVE",
"314.853 91.1777 CURVE SMOOTH",
"314.853 55.7148 LINE",
"674.988 55.7148 LINE",
"674.988 91.1777 LINE SMOOTH",
"674.988 157.457 OFFCURVE",
"728.706 211.176 OFFCURVE",
"794.965 211.176 CURVE SMOOTH",
"861.243 211.176 OFFCURVE",
"914.963 157.457 OFFCURVE",
"914.963 91.1777 CURVE SMOOTH",
"914.963 55.7148 LINE",
"996.085 55.7148 LINE",
"988.062 91.1934 OFFCURVE",
"1008.03 143.125 OFFCURVE",
"996.085 182.381 CURVE SMOOTH",
"977.355 243.917 OFFCURVE",
"905.525 260.081 OFFCURVE",
"790.639 276.806 CURVE",
"660.853 283.327 LINE",
"532.371 419.19 LINE",
"532.371 419.19 OFFCURVE",
"295.824 498.94 OFFCURVE",
"103.631 293.655 CURVE",
"-56 301.226 OFFCURVE",
"18.9856 194.344 OFFCURVE",
"10.1243 156.686 CURVE SMOOTH"
);
},
{
closed = 1;
nodes = (
"416.902 425.835 OFFCURVE",
"519.351 407.841 OFFCURVE",
"519.351 407.841 CURVE",
"634.639 282.21 LINE",
"359.579 282.642 LINE SMOOTH",
"359.579 282.642 OFFCURVE",
"350.054 367.964 OFFCURVE",
"365.947 412.546 CURVE"
);
},
{
closed = 1;
nodes = (
"703.783 78.5977 OFFCURVE",
"706.331 66.6133 OFFCURVE",
"710.961 55.7129 CURVE SMOOTH",
"724.785 22.9727 OFFCURVE",
"757.194 0 OFFCURVE",
"794.963 0 CURVE SMOOTH",
"832.754 0 OFFCURVE",
"865.164 22.9727 OFFCURVE",
"878.987 55.7129 CURVE SMOOTH",
"883.615 66.6133 OFFCURVE",
"886.164 78.5977 OFFCURVE",
"886.164 91.1797 CURVE SMOOTH",
"886.164 141.555 OFFCURVE",
"845.338 182.381 OFFCURVE",
"794.963 182.381 CURVE SMOOTH",
"744.61 182.381 OFFCURVE",
"703.783 141.555 OFFCURVE",
"703.783 91.1797 CURVE SMOOTH"
);
},
{
closed = 1;
nodes = (
"104.191 78.5977 OFFCURVE",
"106.739 66.6133 OFFCURVE",
"111.368 55.7129 CURVE SMOOTH",
"125.192 22.9727 OFFCURVE",
"157.6 0 OFFCURVE",
"195.369 0 CURVE SMOOTH",
"233.16 0 OFFCURVE",
"265.573 22.9727 OFFCURVE",
"279.394 55.7129 CURVE SMOOTH",
"284.023 66.6133 OFFCURVE",
"286.572 78.5977 OFFCURVE",
"286.572 91.1797 CURVE SMOOTH",
"286.572 141.555 OFFCURVE",
"245.745 182.381 OFFCURVE",
"195.369 182.381 CURVE SMOOTH",
"145.017 182.381 OFFCURVE",
"104.191 141.555 OFFCURVE",
"104.191 91.1797 CURVE SMOOTH"
);
}
);
width = 1000;
}
);
unicode = 0063;
},
{
glyphname = d;
lastChange = "2013-02-12 01:32:13 +0000";
layers = (
{
anchors = (
{
name = center;
position = "{300, 125}";
}
);
layerId = "EDC2B6D3-8AFD-4373-943E-E515D75E943F";
name = Regular;
paths = (
{
closed = 1;
nodes = (
"703.666 88.1758 OFFCURVE",
"706.509 74.7266 OFFCURVE",
"711.707 62.499 CURVE SMOOTH",
"727.218 25.7676 OFFCURVE",
"763.58 0 OFFCURVE",
"805.951 0 CURVE SMOOTH",
"848.339 0 OFFCURVE",
"884.703 25.7676 OFFCURVE",
"900.203 62.499 CURVE SMOOTH",
"905.402 74.7266 OFFCURVE",
"908.265 88.1758 OFFCURVE",
"908.265 102.285 CURVE SMOOTH",
"908.265 121.293 OFFCURVE",
"903.078 139.068 OFFCURVE",
"894.054 154.319 CURVE SMOOTH",
"891.812 158.115 OFFCURVE",
"889.328 161.75 OFFCURVE",
"886.625 165.215 CURVE SMOOTH",
"867.908 189.179 OFFCURVE",
"838.736 204.601 OFFCURVE",
"805.951 204.601 CURVE SMOOTH",
"776.789 204.601 OFFCURVE",
"750.472 192.393 OFFCURVE",
"731.855 172.815 CURVE SMOOTH",
"726.537 167.228 OFFCURVE",
"721.851 161.049 OFFCURVE",
"717.896 154.369 CURVE SMOOTH",
"708.853 139.117 OFFCURVE",
"703.666 121.312 OFFCURVE",
"703.666 102.285 CURVE SMOOTH"
);
},
{
closed = 1;
nodes = (
"81.5035 88.1758 OFFCURVE",
"84.3472 74.7266 OFFCURVE",
"89.5445 62.499 CURVE SMOOTH",
"105.056 25.7676 OFFCURVE",
"141.418 0 OFFCURVE",
"183.789 0 CURVE SMOOTH",
"226.189 0 OFFCURVE",
"262.541 25.7676 OFFCURVE",
"278.052 62.499 CURVE SMOOTH",
"283.24 74.7266 OFFCURVE",
"286.103 88.1758 OFFCURVE",
"286.103 102.285 CURVE SMOOTH",
"286.103 121.293 OFFCURVE",
"280.916 139.068 OFFCURVE",
"271.904 154.319 CURVE SMOOTH",
"254.097 184.412 OFFCURVE",
"221.302 204.601 OFFCURVE",
"183.789 204.601 CURVE SMOOTH",
"146.306 204.601 OFFCURVE",
"113.539 184.441 OFFCURVE",
"95.7339 154.369 CURVE SMOOTH",
"86.7007 139.117 OFFCURVE",
"81.5035 121.312 OFFCURVE",
"81.5035 102.285 CURVE SMOOTH"
);
},
{
closed = 1;
nodes = (
"81.5035 88.1758 OFFCURVE",
"84.3472 74.7266 OFFCURVE",
"89.5445 62.499 CURVE SMOOTH",
"105.056 25.7676 OFFCURVE",
"141.418 0 OFFCURVE",
"183.789 0 CURVE SMOOTH",
"226.189 0 OFFCURVE",
"262.541 25.7676 OFFCURVE",
"278.052 62.499 CURVE SMOOTH",
"283.24 74.7266 OFFCURVE",
"286.103 88.1758 OFFCURVE",
"286.103 102.285 CURVE SMOOTH",
"286.103 121.293 OFFCURVE",
"280.916 139.068 OFFCURVE",
"271.904 154.319 CURVE SMOOTH",
"254.097 184.412 OFFCURVE",
"221.302 204.601 OFFCURVE",
"183.789 204.601 CURVE SMOOTH",
"146.306 204.601 OFFCURVE",
"113.539 184.441 OFFCURVE",
"95.7339 154.369 CURVE SMOOTH",
"86.7007 139.117 OFFCURVE",
"81.5035 121.312 OFFCURVE",
"81.5035 102.285 CURVE SMOOTH"
);
},
{
closed = 0;
nodes = (
"300.052 93.2422 LINE",
"292.363 93.2422 LINE"
);
},
{
closed = 0;
nodes = (
"699.419 93.2422 LINE",
"691.558 93.2422 LINE"
);
},
{
closed = 1;
nodes = (
"70.8687 62.6797 LINE",
"70.8687 62.6895 OFFCURVE",
"70.8687 62.6895 OFFCURVE",
"70.8687 62.6992 CURVE",
"66.4917 75.0869 OFFCURVE",
"64.1499 88.416 OFFCURVE",
"64.1499 102.285 CURVE SMOOTH",
"64.1499 124.537 OFFCURVE",
"70.2164 145.367 OFFCURVE",
"80.7925 163.212 CURVE SMOOTH",
"101.623 198.382 OFFCURVE",
"139.947 221.955 OFFCURVE",
"183.789 221.955 CURVE SMOOTH",
"227.671 221.955 OFFCURVE",
"266.025 198.352 OFFCURVE",
"286.845 163.142 CURVE SMOOTH",
"297.4 145.307 OFFCURVE",
"303.459 124.517 OFFCURVE",
"303.459 102.285 CURVE SMOOTH",
"303.459 99.2412 OFFCURVE",
"303.347 96.2266 OFFCURVE",
"303.117 93.2422 CURVE SMOOTH",
"302.396 83.5391 OFFCURVE",
"300.513 74.1562 OFFCURVE",
"297.589 65.2422 CURVE",
"297.589 65.2324 OFFCURVE",
"297.589 65.2324 OFFCURVE",
"297.589 65.2227 CURVE",
"297.57 65.1133 OFFCURVE",
"297.558 65.0127 OFFCURVE",
"297.539 64.9023 CURVE",
"297.539 64.9023 OFFCURVE",
"560.834 64.9023 OFFCURVE",
"691.949 65.8838 CURVE",
"689.154 74.6064 OFFCURVE",
"687.341 83.7793 OFFCURVE",
"686.64 93.2422 CURVE SMOOTH",
"686.412 96.2266 OFFCURVE",
"686.3 99.2412 OFFCURVE",
"686.3 102.285 CURVE SMOOTH",
"686.3 124.537 OFFCURVE",
"692.38 145.367 OFFCURVE",
"702.955 163.212 CURVE SMOOTH",
"723.773 198.382 OFFCURVE",
"762.109 221.955 OFFCURVE",
"805.951 221.955 CURVE SMOOTH",
"849.822 221.955 OFFCURVE",
"888.177 198.352 OFFCURVE",
"909.005 163.142 CURVE SMOOTH",
"919.56 145.307 OFFCURVE",
"925.621 124.517 OFFCURVE",
"925.621 102.285 CURVE SMOOTH",
"925.621 89.0166 OFFCURVE",
"923.457 76.248 OFFCURVE",
"919.46 64.3223 CURVE",
"928.443 63.7109 OFFCURVE",
"992.375 59.6748 OFFCURVE",
"995.449 67.126 CURVE SMOOTH",
"999.394 76.7188 OFFCURVE",
"1003.59 146.067 OFFCURVE",
"994.859 151.695 CURVE SMOOTH",
"982.951 159.377 OFFCURVE",
"977.312 171.113 OFFCURVE",
"976.681 172.555 CURVE SMOOTH",
"972.937 181.228 OFFCURVE",
"972.296 205.893 OFFCURVE",
"962.152 229.135 CURVE SMOOTH",
"959.628 234.934 OFFCURVE",
"928.564 253.239 OFFCURVE",
"874.617 264.576 CURVE",
"875.929 264.485 LINE",
"880.697 281.129 LINE",
"880.697 281.129 OFFCURVE",
"818.828 284.084 OFFCURVE",
"776.369 278.455 CURVE",
"776.357 278.455 OFFCURVE",
"776.357 278.455 OFFCURVE",
"776.347 278.455 CURVE",
"735.291 283.262 OFFCURVE",
"694.662 287.418 OFFCURVE",
"685.89 287.418 CURVE",
"532.873 423.41 LINE",
"333.31 423.41 LINE SMOOTH",
"333.31 423.41 OFFCURVE",
"333.31 408.86 OFFCURVE",
"333.31 388.762 CURVE SMOOTH",
"334.962 287.988 LINE",
"334.962 287.988 OFFCURVE",
"290.669 287.988 OFFCURVE",
"234.701 287.988 CURVE SMOOTH",
"104.986 287.988 LINE",
"63.2867 298.783 OFFCURVE",
"57.0074 331.781 OFFCURVE",
"57.0074 331.781 CURVE SMOOTH",
"20.1167 331.781 LINE SMOOTH",
"20.1167 331.781 OFFCURVE",
"20.146 307.025 OFFCURVE",
"20.1167 288.059 CURVE",
"27.4566 287.988 LINE",
"20.1167 287.988 LINE SMOOTH",
"20.1167 287.988 OFFCURVE",
"20.1167 201.736 OFFCURVE",
"20.1167 171.563 CURVE",
"5.45464 171.563 OFFCURVE",
"7.00737 168.189 OFFCURVE",
"1.37065 155.221 CURVE SMOOTH",
"-4 142.252 OFFCURVE",
"8.20854 91.3799 OFFCURVE",
"25.6539 86.9336 CURVE"
);
},
{
closed = 1;
nodes = (
"363.712 288.209 LINE",
"362.06 397.014 LINE",
"523.209 397.014 LINE",
"646.183 288.209 LINE"
);
}
);
width = 1000;
}
);
unicode = 0064;
},
{
glyphname = e;
lastChange = "2013-02-12 01:32:30 +0000";
layers = (
{
anchors = (
{
name = bottom;
position = "{300, 0}";
},
{
name = ogonek;
position = "{540, 10}";
},
{
name = top;
position = "{300, 250}";
}
);
layerId = "EDC2B6D3-8AFD-4373-943E-E515D75E943F";
name = Regular;
paths = (
{
closed = 1;
nodes = (
"0 114.869 OFFCURVE",
"-5 96.3887 OFFCURVE",
"23.4651 46.041 CURVE",
"78.8138 46.041 LINE",
"78.8138 84.2773 LINE SMOOTH",
"78.8138 155.74 OFFCURVE",
"119.69 213.66 OFFCURVE",
"191.128 213.66 CURVE SMOOTH",
"262.569 213.66 OFFCURVE",
"307.394 155.74 OFFCURVE",
"307.394 84.2773 CURVE SMOOTH",
"307.394 46.041 LINE",
"661.045 46.041 LINE",
"661.045 84.2773 LINE SMOOTH",
"661.045 155.74 OFFCURVE",
"707.49 213.66 OFFCURVE",
"778.93 213.66 CURVE SMOOTH",
"850.392 213.66 OFFCURVE",
"893.938 155.744 OFFCURVE",
"893.938 84.2812 CURVE SMOOTH",
"893.938 46.0449 LINE",
"995.779 46.041 LINE",
"987.128 84.293 OFFCURVE",
"1008.66 140.285 OFFCURVE",
"995.779 182.613 CURVE SMOOTH",
"975.583 248.963 OFFCURVE",
"898.136 266.391 OFFCURVE",
"774.266 284.424 CURVE",
"702.247 287.867 LINE",
"583.616 441.584 LINE",
"583.616 441.584 OFFCURVE",
"275.767 522.613 OFFCURVE",
"49.8821 336.082 CURVE",
"-9 254.857 OFFCURVE",
"3.2249 221.83 OFFCURVE",
"1.18193 156.562 CURVE SMOOTH"
);
},
{
closed = 1;
nodes = (
"416.424 446.371 OFFCURVE",
"569.578 429.348 OFFCURVE",
"569.578 429.348 CURVE",
"673.983 286.664 LINE",
"368.736 290.715 LINE SMOOTH",
"368.736 290.715 OFFCURVE",
"362.563 378.672 OFFCURVE",
"361.484 432.043 CURVE"
);
},
{
closed = 1;
nodes = (
"680.617 84.7422 OFFCURVE",
"683.365 71.8203 OFFCURVE",
"688.357 60.0684 CURVE SMOOTH",
"703.262 24.7676 OFFCURVE",
"738.204 0 OFFCURVE",
"778.928 0 CURVE SMOOTH",
"819.674 0 OFFCURVE",
"854.619 24.7676 OFFCURVE",
"869.523 60.0684 CURVE SMOOTH",
"874.514 71.8203 OFFCURVE",
"877.262 84.7422 OFFCURVE",
"877.262 98.3086 CURVE SMOOTH",
"877.262 152.625 OFFCURVE",
"833.242 196.643 OFFCURVE",
"778.928 196.643 CURVE SMOOTH",
"724.636 196.643 OFFCURVE",
"680.617 152.625 OFFCURVE",
"680.617 98.3086 CURVE SMOOTH"
);
},
{
closed = 1;
nodes = (
"93.3743 84.7422 OFFCURVE",
"96.1214 71.8203 OFFCURVE",
"101.114 60.0684 CURVE SMOOTH",
"116.018 24.7676 OFFCURVE",
"150.96 0 OFFCURVE",
"191.684 0 CURVE SMOOTH",
"232.43 0 OFFCURVE",
"267.377 24.7676 OFFCURVE",
"282.28 60.0684 CURVE SMOOTH",
"287.27 71.8203 OFFCURVE",
"290.018 84.7422 OFFCURVE",
"290.018 98.3086 CURVE SMOOTH",
"290.018 152.625 OFFCURVE",
"245.999 196.643 OFFCURVE",
"191.684 196.643 CURVE SMOOTH",
"137.393 196.643 OFFCURVE",
"93.3743 152.625 OFFCURVE",
"93.3743 98.3086 CURVE SMOOTH"
);
}
);
width = 1000;
}
);
unicode = 0065;
},
{
glyphname = f;
lastChange = "2013-02-12 01:33:34 +0000";
layers = (
{
layerId = "EDC2B6D3-8AFD-4373-943E-E515D75E943F";
name = Regular;
paths = (
{
closed = 1;
nodes = (
"704 87 OFFCURVE",
"707 74 OFFCURVE",
"712 61 CURVE SMOOTH",
"727 25 OFFCURVE",
"764 -1 OFFCURVE",
"806 -1 CURVE SMOOTH",
"848 -1 OFFCURVE",
"885 25 OFFCURVE",
"900 61 CURVE SMOOTH",
"905 74 OFFCURVE",
"908 87 OFFCURVE",
"908 101 CURVE SMOOTH",
"908 120 OFFCURVE",
"903 138 OFFCURVE",
"894 153 CURVE SMOOTH",
"876 183 OFFCURVE",
"843 203 OFFCURVE",
"806 203 CURVE SMOOTH",
"768 203 OFFCURVE",
"736 183 OFFCURVE",
"718 153 CURVE SMOOTH",
"709 138 OFFCURVE",
"704 120 OFFCURVE",
"704 101 CURVE SMOOTH"
);
},
{
closed = 1;
nodes = (
"80 87 OFFCURVE",
"83 74 OFFCURVE",
"88 61 CURVE SMOOTH",
"103 25 OFFCURVE",
"140 -1 OFFCURVE",
"182 -1 CURVE SMOOTH",
"224 -1 OFFCURVE",
"261 25 OFFCURVE",
"276 61 CURVE SMOOTH",
"281 74 OFFCURVE",
"284 87 OFFCURVE",
"284 101 CURVE SMOOTH",
"284 120 OFFCURVE",
"279 138 OFFCURVE",
"270 153 CURVE SMOOTH",
"252 183 OFFCURVE",
"219 203 OFFCURVE",
"182 203 CURVE SMOOTH",
"145 203 OFFCURVE",
"112 183 OFFCURVE",
"94 153 CURVE SMOOTH",
"85 138 OFFCURVE",
"80 120 OFFCURVE",
"80 101 CURVE SMOOTH"
);
},
{
closed = 0;
nodes = (
"700 141 LINE",
"293 141 LINE"
);
},
{
closed = 1;
nodes = (
"75 157 LINE",
"91 202 OFFCURVE",
"134 234 OFFCURVE",
"184 234 CURVE SMOOTH",
"234 234 OFFCURVE",
"277 202 OFFCURVE",
"293 157 CURVE",
"697 157 LINE",
"697 157 OFFCURVE",
"697 157 OFFCURVE",
"697 157 CURVE",
"713 202 OFFCURVE",
"756 234 OFFCURVE",
"806 234 CURVE SMOOTH",
"856 234 OFFCURVE",
"899 202 OFFCURVE",
"915 157 CURVE",
"915 157 OFFCURVE",
"996 152 OFFCURVE",
"999 160 CURVE SMOOTH",
"1003 169 OFFCURVE",
"1001 219 OFFCURVE",
"993 224 CURVE SMOOTH",
"981 232 OFFCURVE",
"975 244 OFFCURVE",
"975 245 CURVE SMOOTH",
"971 254 OFFCURVE",
"966 290 OFFCURVE",
"956 314 CURVE SMOOTH",
"950 328 OFFCURVE",
"739 340 OFFCURVE",
"686 340 CURVE",
"535 491 LINE",
"336 491 LINE SMOOTH",
"336 491 OFFCURVE",
"336 477 OFFCURVE",
"336 457 CURVE SMOOTH",
"336 341 LINE",
"336 341 OFFCURVE",
"291 341 OFFCURVE",
"235 341 CURVE SMOOTH",
"21 341 LINE SMOOTH",
"21 341 OFFCURVE",
"21 255 OFFCURVE",
"21 224 CURVE",
"7 224 OFFCURVE",
"8 221 OFFCURVE",
"2 208 CURVE SMOOTH",
"-3 195 OFFCURVE",
"9 168 OFFCURVE",
"26 164 CURVE"
);
},
{
closed = 1;
nodes = (
"525 465 LINE",
"646 341 LINE",
"364 341 LINE",
"364 465 LINE"
);
}
);
width = 1000;
}
);
unicode = 0066;
},
{
glyphname = g;
lastChange = "2013-02-12 01:33:26 +0000";
layers = (
{
anchors = (
{
name = ogonek;
position = "{540, 10}";
},
{
name = top;
position = "{300, 250}";
}
);
layerId = "EDC2B6D3-8AFD-4373-943E-E515D75E943F";
name = Regular;
paths = (
{
closed = 1;
nodes = (
"704 84 OFFCURVE",
"706 72 OFFCURVE",
"711 61 CURVE SMOOTH",
"725 28 OFFCURVE",
"758 5 OFFCURVE",
"796 5 CURVE SMOOTH",
"834 5 OFFCURVE",
"867 28 OFFCURVE",
"881 61 CURVE SMOOTH",
"886 72 OFFCURVE",
"888 84 OFFCURVE",
"888 97 CURVE SMOOTH",
"888 114 OFFCURVE",
"883 130 OFFCURVE",
"875 144 CURVE SMOOTH",
"859 171 OFFCURVE",
"830 189 OFFCURVE",
"796 189 CURVE SMOOTH",
"762 189 OFFCURVE",
"733 171 OFFCURVE",
"717 144 CURVE SMOOTH",
"709 130 OFFCURVE",
"704 114 OFFCURVE",
"704 97 CURVE SMOOTH"
);
},
{
closed = 1;
nodes = (
"84 79 OFFCURVE",
"86 67 OFFCURVE",
"91 56 CURVE SMOOTH",
"105 23 OFFCURVE",
"138 0 OFFCURVE",
"176 0 CURVE SMOOTH",
"214 0 OFFCURVE",
"247 23 OFFCURVE",
"261 56 CURVE SMOOTH",
"266 67 OFFCURVE",
"268 79 OFFCURVE",
"268 92 CURVE SMOOTH",
"268 109 OFFCURVE",
"263 125 OFFCURVE",
"255 139 CURVE SMOOTH",
"239 166 OFFCURVE",
"210 184 OFFCURVE",
"176 184 CURVE SMOOTH",
"142 184 OFFCURVE",
"113 166 OFFCURVE",
"97 139 CURVE SMOOTH",
"89 125 OFFCURVE",
"84 109 OFFCURVE",
"84 92 CURVE SMOOTH"
);
},
{
closed = 0;
nodes = (
"692 142 LINE",
"285 142 LINE"
);
},
{
closed = 1;
nodes = (
"63 167 OFFCURVE",
"124 205 OFFCURVE",
"174 205 CURVE SMOOTH",
"225 205 OFFCURVE",
"289 168 OFFCURVE",
"289 77 CURVE",
"289 77 OFFCURVE",
"682 77 OFFCURVE",
"683 77 CURVE",
"683 181 OFFCURVE",
"746 211 OFFCURVE",
"796 211 CURVE SMOOTH",
"847 211 OFFCURVE",
"909 180 OFFCURVE",
"909 79 CURVE",
"909 79 OFFCURVE",
"986 74 OFFCURVE",
"990 82 CURVE SMOOTH",
"993 91 OFFCURVE",
"992 190 OFFCURVE",
"983 196 CURVE SMOOTH",
"971 204 OFFCURVE",
"966 215 OFFCURVE",
"965 217 CURVE SMOOTH",
"961 225 OFFCURVE",
"957 262 OFFCURVE",
"947 285 CURVE SMOOTH",
"940 300 OFFCURVE",
"795 312 OFFCURVE",
"742 312 CURVE SMOOTH",
"742 312 OFFCURVE",
"658 428 OFFCURVE",
"618 466 CURVE",
"499 490 OFFCURVE",
"364 490 OFFCURVE",
"284 484 CURVE SMOOTH",
"11 466 OFFCURVE",
"8 461 OFFCURVE",
"12 312 CURVE SMOOTH",
"13 251 OFFCURVE",
"12 139 OFFCURVE",
"19 99 CURVE",
"15 82 OFFCURVE",
"64 78 OFFCURVE",
"64 78 CURVE"
);
},
{
closed = 1;
nodes = (
"417 463 OFFCURVE",
"517 469 OFFCURVE",
"611 445 CURVE",
"642 409 OFFCURVE",
"709 309 OFFCURVE",
"709 309 CURVE SMOOTH",
"444 312 LINE",
"417 463 LINE"
);
}
);
width = 1000;
}
);
unicode = 0067;
},
{
glyphname = five;
lastChange = "2013-02-08 08:23:57 +0000";
layers = (
{
anchors = (
{
name = top;
position = "{500, 500}";
}
);
layerId = "EDC2B6D3-8AFD-4373-943E-E515D75E943F";
name = Regular;
paths = (
{
closed = 1;
nodes = (
"224 750 OFFCURVE",
"0 526 OFFCURVE",
"0 250 CURVE SMOOTH",
"0 -27 OFFCURVE",
"224 -250 OFFCURVE",
"500 -250 CURVE SMOOTH",
"776 -250 OFFCURVE",
"1000 -27 OFFCURVE",
"1000 250 CURVE SMOOTH",
"1000 526 OFFCURVE",
"776 750 OFFCURVE",
"500 750 CURVE SMOOTH"
);
},
{
closed = 1;
nodes = (
"767 -97 OFFCURVE",
"721 -129 OFFCURVE",
"669 -150 CURVE SMOOTH",
"615 -173 OFFCURVE",
"559 -185 OFFCURVE",
"500 -185 CURVE SMOOTH",
"441 -185 OFFCURVE",
"385 -173 OFFCURVE",
"331 -150 CURVE SMOOTH",
"279 -129 OFFCURVE",
"233 -97 OFFCURVE",
"193 -57 CURVE SMOOTH",
"153 -18 OFFCURVE",
"122 29 OFFCURVE",
"100 81 CURVE SMOOTH",
"77 134 OFFCURVE",
"66 191 OFFCURVE",
"66 250 CURVE SMOOTH",
"66 308 OFFCURVE",
"77 365 OFFCURVE",
"100 419 CURVE SMOOTH",
"122 470 OFFCURVE",
"153 517 OFFCURVE",
"193 557 CURVE SMOOTH",
"233 596 OFFCURVE",
"279 628 OFFCURVE",
"331 650 CURVE SMOOTH",
"385 672 OFFCURVE",
"441 684 OFFCURVE",
"500 684 CURVE SMOOTH",
"559 684 OFFCURVE",
"615 672 OFFCURVE",
"669 650 CURVE SMOOTH",
"721 628 OFFCURVE",
"767 596 OFFCURVE",
"807 557 CURVE SMOOTH",
"847 517 OFFCURVE",
"878 470 OFFCURVE",
"900 419 CURVE SMOOTH",
"923 365 OFFCURVE",
"934 308 OFFCURVE",
"934 250 CURVE SMOOTH",
"934 191 OFFCURVE",
"923 134 OFFCURVE",
"900 81 CURVE SMOOTH",
"878 29 OFFCURVE",
"847 -18 OFFCURVE",
"807 -57 CURVE SMOOTH"
);
},
{
closed = 1;
nodes = (
"275 658 OFFCURVE",
"92 475 OFFCURVE",
"92 250 CURVE SMOOTH",
"92 24 OFFCURVE",
"275 -159 OFFCURVE",
"500 -159 CURVE SMOOTH",
"725 -159 OFFCURVE",
"908 24 OFFCURVE",
"908 250 CURVE SMOOTH",
"908 475 OFFCURVE",
"725 658 OFFCURVE",
"500 658 CURVE SMOOTH"
);
},
{
closed = 1;
nodes = (
"677 606 OFFCURVE",
"786 523 OFFCURVE",
"840 410 CURVE",
"550 315 LINE",
"547 314 LINE",
"547 622 LINE"
);
},
{
closed = 1;
nodes = (
"453 314 LINE",
"449 316 LINE",
"161 409 LINE",
"215 523 OFFCURVE",
"324 605 OFFCURVE",
"453 621 CURVE"
);
},
{
closed = 1;
nodes = (
"125 272 OFFCURVE",
"127 295 OFFCURVE",
"131 316 CURVE SMOOTH",
"131 318 OFFCURVE",
"132 319 OFFCURVE",
"132 321 CURVE",
"423 226 LINE",
"425 225 LINE",
"425 226 LINE",
"425 225 LINE",
"425 225 LINE",
"425 225 LINE",
"424 224 LINE",
"243 -24 LINE",
"170 44 OFFCURVE",
"125 141 OFFCURVE",
"125 249 CURVE SMOOTH"
);
},
{
closed = 1;
nodes = (
"683 -82 OFFCURVE",
"682 -82 OFFCURVE",
"681 -83 CURVE",
"680 -81 LINE",
"627 -110 OFFCURVE",
"566 -127 OFFCURVE",
"501 -127 CURVE SMOOTH",
"435 -127 OFFCURVE",
"374 -110 OFFCURVE",
"320 -81 CURVE",
"319 -82 LINE",
"319 -82 OFFCURVE",
"318 -81 OFFCURVE",
"317 -81 CURVE SMOOTH",
"317 -81 OFFCURVE",
"317 -81 OFFCURVE",
"317 -81 CURVE",
"318 -79 LINE",
"499 171 LINE",
"500 172 LINE",
"501 171 LINE",
"683 -80 LINE",
"684 -81 LINE",
"684 -81 OFFCURVE",
"683 -81 OFFCURVE",
"683 -82 CURVE"
);
},
{
closed = 1;
nodes = (
"576 225 LINE",
"576 225 LINE",
"869 321 LINE",
"869 320 OFFCURVE",
"870 319 OFFCURVE",
"870 318 CURVE SMOOTH",
"874 296 OFFCURVE",
"876 272 OFFCURVE",
"876 249 CURVE SMOOTH",
"876 141 OFFCURVE",
"831 44 OFFCURVE",
"758 -25 CURVE"
);
},
{
closed = 1;
nodes = (
"684 -81 OFFCURVE",
"683 -81 OFFCURVE",
"683 -82 CURVE",
"683 -82 OFFCURVE",
"682 -82 OFFCURVE",
"681 -83 CURVE",
"680 -81 LINE",
"500 167 LINE",
"320 -81 LINE",
"319 -82 LINE",
"319 -82 OFFCURVE",
"318 -81 OFFCURVE",
"317 -81 CURVE SMOOTH",
"317 -81 OFFCURVE",
"317 -81 OFFCURVE",
"317 -81 CURVE",
"318 -79 LINE",
"499 171 LINE",
"500 172 LINE",
"501 171 LINE",
"683 -80 LINE",
"684 -81 LINE"
);
},
{
closed = 1;
nodes = (
"683 -80 OFFCURVE",
"682 -80 OFFCURVE",
"682 -80 CURVE",
"682 -80 OFFCURVE",
"681 -80 OFFCURVE",
"681 -81 CURVE SMOOTH",
"681 -81 OFFCURVE",
"680 -81 OFFCURVE",
"680 -81 CURVE",
"681 -83 LINE",
"682 -82 OFFCURVE",
"683 -82 OFFCURVE",
"683 -82 CURVE",
"683 -81 OFFCURVE",
"684 -81 OFFCURVE",
"684 -81 CURVE",
"683 -80 LINE"
);
},
{
closed = 1;
nodes = (
"319 -80 OFFCURVE",
"319 -80 OFFCURVE",
"318 -79 CURVE",
"318 -79 OFFCURVE",
"318 -79 OFFCURVE",
"318 -79 CURVE",
"317 -81 LINE",
"317 -81 OFFCURVE",
"317 -81 OFFCURVE",
"317 -81 CURVE SMOOTH",
"318 -81 OFFCURVE",
"319 -82 OFFCURVE",
"319 -82 CURVE",
"320 -81 LINE",
"320 -80 OFFCURVE",
"320 -80 OFFCURVE",
"320 -80 CURVE SMOOTH"
);
},
{
closed = 1;
nodes = (
"425 225 LINE",
"425 225 LINE",
"425 226 LINE"
);
},
{
closed = 1;
nodes = (
"425 225 LINE",
"425 225 LINE",
"425 226 LINE"
);
},
{
closed = 1;
nodes = (
"318 -79 LINE",
"317 -81 LINE",
"317 -81 OFFCURVE",
"317 -81 OFFCURVE",
"317 -81 CURVE",
"318 -79 LINE",
"499 171 LINE",
"500 171 LINE"
);
},
{
closed = 1;
nodes = (
"684 -81 OFFCURVE",
"683 -81 OFFCURVE",
"683 -82 CURVE",
"682 -80 LINE",
"500 171 LINE",
"501 171 LINE",
"683 -80 LINE",
"684 -81 LINE"
);
}
);
width = 1000;
}
);
unicode = 0035;
},
{
glyphname = six;
lastChange = "2013-02-08 08:23:55 +0000";
layers = (
{
layerId = "EDC2B6D3-8AFD-4373-943E-E515D75E943F";
name = Regular;
paths = (
{
closed = 1;
nodes = (
"224 750 OFFCURVE",
"0 527 OFFCURVE",
"0 250 CURVE SMOOTH",
"0 -26 OFFCURVE",
"224 -250 OFFCURVE",
"500 -250 CURVE SMOOTH",
"776 -250 OFFCURVE",
"1000 -26 OFFCURVE",
"1000 250 CURVE SMOOTH",
"1000 527 OFFCURVE",
"776 750 OFFCURVE",
"500 750 CURVE SMOOTH"
);
},
{
closed = 1;
nodes = (
"765 -96 OFFCURVE",
"719 -128 OFFCURVE",
"667 -150 CURVE SMOOTH",
"613 -172 OFFCURVE",
"557 -184 OFFCURVE",
"498 -184 CURVE SMOOTH",
"439 -184 OFFCURVE",
"383 -172 OFFCURVE",
"329 -150 CURVE SMOOTH",
"277 -128 OFFCURVE",
"231 -96 OFFCURVE",
"191 -57 CURVE SMOOTH",
"151 -17 OFFCURVE",
"120 30 OFFCURVE",
"98 81 CURVE SMOOTH",
"75 135 OFFCURVE",
"64 192 OFFCURVE",
"64 250 CURVE SMOOTH",
"64 309 OFFCURVE",
"75 366 OFFCURVE",
"98 419 CURVE SMOOTH",
"120 471 OFFCURVE",
"151 518 OFFCURVE",
"191 557 CURVE SMOOTH",
"231 597 OFFCURVE",
"277 629 OFFCURVE",
"329 650 CURVE SMOOTH",
"383 673 OFFCURVE",
"439 685 OFFCURVE",
"498 685 CURVE SMOOTH",
"557 685 OFFCURVE",
"613 673 OFFCURVE",
"667 650 CURVE SMOOTH",
"719 629 OFFCURVE",
"765 597 OFFCURVE",
"805 557 CURVE SMOOTH",
"845 518 OFFCURVE",
"876 471 OFFCURVE",
"898 419 CURVE SMOOTH",
"921 366 OFFCURVE",
"932 309 OFFCURVE",
"932 250 CURVE SMOOTH",
"932 192 OFFCURVE",
"921 135 OFFCURVE",
"898 81 CURVE SMOOTH",
"876 30 OFFCURVE",
"845 -17 OFFCURVE",
"805 -57 CURVE SMOOTH"
);
},
{
closed = 1;
nodes = (
"891 412 OFFCURVE",
"830 511 OFFCURVE",
"743 577 CURVE SMOOTH",
"718 596 OFFCURVE",
"691 612 OFFCURVE",
"661 625 CURVE SMOOTH",
"611 647 OFFCURVE",
"556 659 OFFCURVE",
"498 659 CURVE SMOOTH",
"440 659 OFFCURVE",
"385 647 OFFCURVE",
"335 625 CURVE SMOOTH",
"305 612 OFFCURVE",
"278 596 OFFCURVE",
"253 577 CURVE SMOOTH",
"166 511 OFFCURVE",
"106 412 OFFCURVE",
"92 298 CURVE SMOOTH",
"91 282 OFFCURVE",
"90 266 OFFCURVE",
"90 250 CURVE SMOOTH",
"90 234 OFFCURVE",
"91 219 OFFCURVE",
"92 203 CURVE SMOOTH",
"106 88 OFFCURVE",
"167 -13 OFFCURVE",
"256 -78 CURVE SMOOTH",
"281 -97 OFFCURVE",
"308 -113 OFFCURVE",
"338 -125 CURVE SMOOTH",
"387 -146 OFFCURVE",
"441 -158 OFFCURVE",
"498 -158 CURVE SMOOTH",
"555 -158 OFFCURVE",
"609 -146 OFFCURVE",
"658 -125 CURVE SMOOTH",
"688 -113 OFFCURVE",
"715 -97 OFFCURVE",
"740 -78 CURVE SMOOTH",
"829 -13 OFFCURVE",
"890 88 OFFCURVE",
"904 203 CURVE SMOOTH",
"906 219 OFFCURVE",
"906 234 OFFCURVE",
"906 250 CURVE SMOOTH",
"906 266 OFFCURVE",
"906 282 OFFCURVE",
"904 298 CURVE SMOOTH"
);
},
{
closed = 1;
nodes = (
"776 512 OFFCURVE",
"816 463 OFFCURVE",
"842 406 CURVE SMOOTH",
"855 379 OFFCURVE",
"864 349 OFFCURVE",
"870 319 CURVE SMOOTH",
"871 312 OFFCURVE",
"873 305 OFFCURVE",
"873 298 CURVE",
"582 298 LINE",
"727 550 LINE"
);
},
{
closed = 1;
nodes = (
"470 624 OFFCURVE",
"485 625 OFFCURVE",
"501 625 CURVE SMOOTH",
"516 625 OFFCURVE",
"531 624 OFFCURVE",
"546 623 CURVE SMOOTH",
"581 618 OFFCURVE",
"614 609 OFFCURVE",
"645 597 CURVE",
"498 342 LINE",
"352 594 LINE",
"384 608 OFFCURVE",
"418 618 OFFCURVE",
"454 622 CURVE SMOOTH"
);
},
{
closed = 1;
nodes = (
"137 348 OFFCURVE",
"146 377 OFFCURVE",
"159 405 CURVE SMOOTH",
"184 461 OFFCURVE",
"223 509 OFFCURVE",
"271 546 CURVE",
"414 298 LINE",
"128 298 LINE",
"129 304 OFFCURVE",
"130 311 OFFCURVE",
"132 317 CURVE SMOOTH"
);
},
{
closed = 1;
nodes = (
"182 33 OFFCURVE",
"139 113 OFFCURVE",
"128 203 CURVE",
"418 203 LINE",
"273 -49 LINE",
"263 -41 OFFCURVE",
"254 -34 OFFCURVE",
"246 -26 CURVE SMOOTH"
);
},
{
closed = 1;
nodes = (
"449 -126 OFFCURVE",
"399 -115 OFFCURVE",
"354 -96 CURVE",
"498 153 LINE",
"643 -98 LINE",
"599 -116 OFFCURVE",
"551 -126 OFFCURVE",
"501 -126 CURVE SMOOTH"
);
},
{
closed = 1;
nodes = (
"746 -35 OFFCURVE",
"736 -44 OFFCURVE",
"725 -52 CURVE",
"578 203 LINE",
"874 203 LINE",
"863 113 OFFCURVE",
"819 32 OFFCURVE",
"756 -26 CURVE SMOOTH"
);
}
);
width = 1000;
}
);
unicode = 0036;
},
{
glyphname = seven;
lastChange = "2013-02-08 08:42:17 +0000";
layers = (
{
layerId = "EDC2B6D3-8AFD-4373-943E-E515D75E943F";
name = Regular;
paths = (
{
closed = 1;
nodes = (
"500 251 LINE",
"500 251 LINE"
);
},
{
closed = 1;
nodes = (
"224 750 OFFCURVE",
"0 526 OFFCURVE",
"0 250 CURVE SMOOTH",
"0 -26 OFFCURVE",
"224 -250 OFFCURVE",
"500 -250 CURVE SMOOTH",
"776 -250 OFFCURVE",
"1000 -26 OFFCURVE",
"1000 250 CURVE SMOOTH",
"1000 526 OFFCURVE",
"776 750 OFFCURVE",
"500 750 CURVE SMOOTH"
);
},
{
closed = 1;
nodes = (
"905 98 OFFCURVE",
"901 90 OFFCURVE",
"898 81 CURVE SMOOTH",
"876 29 OFFCURVE",
"845 -17 OFFCURVE",
"805 -57 CURVE SMOOTH",
"782 -80 OFFCURVE",
"757 -100 OFFCURVE",
"729 -117 CURVE SMOOTH",
"710 -130 OFFCURVE",
"689 -141 OFFCURVE",
"667 -150 CURVE SMOOTH",
"660 -153 OFFCURVE",
"653 -156 OFFCURVE",
"645 -158 CURVE SMOOTH",
"598 -175 OFFCURVE",
"549 -184 OFFCURVE",
"498 -184 CURVE SMOOTH",
"449 -184 OFFCURVE",
"401 -176 OFFCURVE",
"355 -160 CURVE SMOOTH",
"346 -157 OFFCURVE",
"337 -154 OFFCURVE",
"329 -150 CURVE SMOOTH",
"308 -141 OFFCURVE",
"289 -131 OFFCURVE",
"270 -120 CURVE SMOOTH",
"242 -102 OFFCURVE",
"215 -81 OFFCURVE",
"191 -57 CURVE SMOOTH",
"151 -17 OFFCURVE",
"120 29 OFFCURVE",
"98 81 CURVE SMOOTH",
"94 90 OFFCURVE",
"90 99 OFFCURVE",
"87 108 CURVE SMOOTH",
"77 138 OFFCURVE",
"70 168 OFFCURVE",
"67 200 CURVE SMOOTH",
"65 216 OFFCURVE",
"64 233 OFFCURVE",
"64 250 CURVE SMOOTH",
"64 309 OFFCURVE",
"75 365 OFFCURVE",
"98 419 CURVE SMOOTH",
"107 442 OFFCURVE",
"119 464 OFFCURVE",
"132 484 CURVE SMOOTH",
"149 510 OFFCURVE",
"169 535 OFFCURVE",
"191 557 CURVE SMOOTH",
"191 557 OFFCURVE",
"191 557 OFFCURVE",
"191 557 CURVE SMOOTH",
"231 597 OFFCURVE",
"277 628 OFFCURVE",
"329 650 CURVE SMOOTH",
"369 667 OFFCURVE",
"411 678 OFFCURVE",
"454 682 CURVE SMOOTH",
"468 683 OFFCURVE",
"483 684 OFFCURVE",
"498 684 CURVE SMOOTH",
"514 684 OFFCURVE",
"531 683 OFFCURVE",
"547 681 CURVE SMOOTH",
"588 677 OFFCURVE",
"628 666 OFFCURVE",
"667 650 CURVE SMOOTH",
"718 628 OFFCURVE",
"765 597 OFFCURVE",
"805 557 CURVE SMOOTH",
"806 556 OFFCURVE",
"807 555 OFFCURVE",
"808 554 CURVE SMOOTH",
"830 531 OFFCURVE",
"849 507 OFFCURVE",
"866 481 CURVE SMOOTH",
"878 461 OFFCURVE",
"889 440 OFFCURVE",
"898 419 CURVE SMOOTH",
"920 365 OFFCURVE",
"932 309 OFFCURVE",
"932 250 CURVE SMOOTH",
"932 233 OFFCURVE",
"931 215 OFFCURVE",
"929 198 CURVE SMOOTH",
"925 167 OFFCURVE",
"918 137 OFFCURVE",
"908 107 CURVE SMOOTH"
);
},
{
closed = 1;
nodes = (
"500 251 LINE",
"500 251 LINE"
);
},
{
closed = 1;
nodes = (
"830 492 OFFCURVE",
"811 517 OFFCURVE",
"789 539 CURVE SMOOTH",
"725 602 OFFCURVE",
"641 645 OFFCURVE",
"547 656 CURVE SMOOTH",
"532 657 OFFCURVE",
"516 658 OFFCURVE",
"500 658 CURVE SMOOTH",
"484 658 OFFCURVE",
"469 658 OFFCURVE",
"454 656 CURVE SMOOTH",
"360 645 OFFCURVE",
"276 603 OFFCURVE",
"213 540 CURVE SMOOTH",
"190 518 OFFCURVE",
"171 493 OFFCURVE",
"154 467 CURVE SMOOTH",
"115 404 OFFCURVE",
"92 330 OFFCURVE",
"92 250 CURVE SMOOTH",
"92 235 OFFCURVE",
"92 220 OFFCURVE",
"94 206 CURVE SMOOTH",
"97 174 OFFCURVE",
"104 144 OFFCURVE",
"115 115 CURVE SMOOTH",
"145 27 OFFCURVE",
"205 -47 OFFCURVE",
"282 -95 CURVE SMOOTH",
"308 -112 OFFCURVE",
"337 -126 OFFCURVE",
"366 -136 CURVE SMOOTH",
"408 -151 OFFCURVE",
"453 -158 OFFCURVE",
"500 -158 CURVE SMOOTH",
"547 -158 OFFCURVE",
"592 -150 OFFCURVE",
"635 -136 CURVE SMOOTH",
"664 -125 OFFCURVE",
"692 -111 OFFCURVE",
"719 -95 CURVE SMOOTH",
"795 -46 OFFCURVE",
"854 26 OFFCURVE",
"885 113 CURVE SMOOTH",
"895 142 OFFCURVE",
"902 172 OFFCURVE",
"906 204 CURVE SMOOTH",
"908 219 OFFCURVE",
"908 234 OFFCURVE",
"908 250 CURVE SMOOTH",
"908 329 OFFCURVE",
"886 403 OFFCURVE",
"847 466 CURVE SMOOTH"
);
},
{
closed = 1;
nodes = (
"630 611 OFFCURVE",
"705 573 OFFCURVE",
"762 518 CURVE",
"547 347 LINE",
"547 621 LINE"
);
},
{
closed = 1;
nodes = (
"500 251 LINE",
"500 251 LINE"
);
},
{
closed = 1;
nodes = (
"454 347 LINE",
"239 519 LINE",
"296 574 OFFCURVE",
"371 611 OFFCURVE",
"454 621 CURVE"
);
},
{
closed = 1;
nodes = (
"125 322 OFFCURVE",
"145 389 OFFCURVE",
"180 446 CURVE",
"396 274 LINE",
"126 213 LINE",
"125 225 OFFCURVE",
"125 238 OFFCURVE",
"125 250 CURVE SMOOTH"
);
},
{
closed = 1;
nodes = (
"228 -21 OFFCURVE",
"175 45 OFFCURVE",
"147 122 CURVE",
"416 183 LINE",
"297 -65 LINE"
);
},
{
closed = 1;
nodes = (
"458 -124 OFFCURVE",
"419 -117 OFFCURVE",
"381 -105 CURVE",
"501 143 LINE",
"620 -105 LINE",
"582 -117 OFFCURVE",
"542 -124 OFFCURVE",
"500 -124 CURVE SMOOTH"
);
},
{
closed = 1;
nodes = (
"586 181 LINE",
"852 120 LINE",
"824 44 OFFCURVE",
"771 -21 OFFCURVE",
"704 -64 CURVE"
);
},
{
closed = 1;
nodes = (
"604 273 LINE",
"821 445 LINE",
"855 388 OFFCURVE",
"876 321 OFFCURVE",
"876 250 CURVE SMOOTH",
"876 237 OFFCURVE",
"875 224 OFFCURVE",
"874 211 CURVE"
);
},
{
closed = 1;
nodes = (
"500 251 LINE",
"500 251 LINE"
);
},
{
closed = 1;
nodes = (
"500 251 LINE",
"500 251 LINE"
);
}
);
width = 1000;
}
);
unicode = 0037;
},
{
glyphname = dollar;
lastChange = "2013-02-12 01:28:21 +0000";
layers = (
{
anchors = (
{
name = bottom;
position = "{500, 0}";
},
{
name = top;
position = "{500, 500}";
}
);
layerId = "EDC2B6D3-8AFD-4373-943E-E515D75E943F";
name = Regular;
paths = (
{
closed = 1;
nodes = (
"500 75 OFFCURVE",
"388 2 OFFCURVE",
"250 2 CURVE SMOOTH",
"112 2 OFFCURVE",
"0 75 OFFCURVE",
"0 164 CURVE SMOOTH",
"0 253 OFFCURVE",
"112 326 OFFCURVE",
"250 326 CURVE SMOOTH",
"388 326 OFFCURVE",
"500 253 OFFCURVE",
"500 164 CURVE SMOOTH"
);
},
{
closed = 1;
nodes = (
"23 233 LINE",
"289 542 LINE",
"295 537 LINE",
"29 228 LINE"
);
},
{
closed = 1;
nodes = (
"1000 58 OFFCURVE",
"888 -14 OFFCURVE",
"750 -14 CURVE SMOOTH",
"612 -14 OFFCURVE",
"500 58 OFFCURVE",
"500 148 CURVE SMOOTH",
"500 237 OFFCURVE",
"612 310 OFFCURVE",
"750 310 CURVE SMOOTH",
"888 310 OFFCURVE",
"1000 237 OFFCURVE",
"1000 148 CURVE SMOOTH"
);
},
{
closed = 1;
nodes = (
"523 217 LINE",
"789 526 LINE",
"795 521 LINE",
"529 212 LINE"
);
}
);
width = 1000;
}
);
unicode = 0024;
},
{
glyphname = percent;
lastChange = "2013-02-12 01:28:18 +0000";
layers = (
{
anchors = (
{
name = bottom;
position = "{500, 0}";
},
{
name = top;
position = "{500, 500}";
}
);
layerId = "EDC2B6D3-8AFD-4373-943E-E515D75E943F";
name = Regular;
paths = (
{
closed = 1;
nodes = (
"224 750 OFFCURVE",
"0 526 OFFCURVE",
"0 250 CURVE SMOOTH",
"0 69 OFFCURVE",
"96 -89 OFFCURVE",
"239 -177 CURVE SMOOTH",
"315 -223 OFFCURVE",
"405 -250 OFFCURVE",
"500 -250 CURVE SMOOTH",
"595 -250 OFFCURVE",
"685 -223 OFFCURVE",
"761 -177 CURVE SMOOTH",
"904 -89 OFFCURVE",
"1000 69 OFFCURVE",
"1000 250 CURVE SMOOTH",
"1000 526 OFFCURVE",
"776 750 OFFCURVE",
"500 750 CURVE SMOOTH"
);
},
{
closed = 1;
nodes = (
"700 -22 LINE",
"700 216 LINE",
"516 216 LINE",
"516 -22 LINE",
"484 -22 LINE",
"484 216 LINE",
"300 216 LINE",
"300 -22 LINE",
"269 -22 LINE",
"269 522 LINE",
"300 522 LINE",
"300 247 LINE",
"484 247 LINE",
"484 522 LINE",
"516 522 LINE",
"516 247 LINE",
"700 247 LINE",
"700 522 LINE",
"731 522 LINE",
"731 -22 LINE"
);
}
);
width = 1000;
}
);
unicode = 0025;
},
{
glyphname = ampersand;
lastChange = "2013-02-12 01:28:39 +0000";
layers = (
{
anchors = (
{
name = bottom;
position = "{500, 0}";
},
{
name = top;
position = "{500, 500}";
}
);
layerId = "EDC2B6D3-8AFD-4373-943E-E515D75E943F";
name = Regular;
paths = (
{
closed = 1;
nodes = (
"224 750 OFFCURVE",
"0 527 OFFCURVE",
"0 250 CURVE SMOOTH",
"0 -26 OFFCURVE",
"224 -250 OFFCURVE",
"500 -250 CURVE SMOOTH",
"776 -250 OFFCURVE",
"1000 -26 OFFCURVE",
"1000 250 CURVE SMOOTH",
"1000 527 OFFCURVE",
"776 750 OFFCURVE",
"500 750 CURVE SMOOTH"
);
},
{
closed = 1;
nodes = (
"242 -124 OFFCURVE",
"120 -1 OFFCURVE",
"85 155 CURVE",
"85 155 LINE",
"100 175 OFFCURVE",
"137 199 OFFCURVE",
"199 179 CURVE",
"199 179 OFFCURVE",
"199 179 OFFCURVE",
"199 179 CURVE",
"334 131 OFFCURVE",
"384 73 OFFCURVE",
"408 -13 CURVE SMOOTH",
"413 -29 OFFCURVE",
"416 -46 OFFCURVE",
"419 -64 CURVE",
"420 -68 OFFCURVE",
"420 -72 OFFCURVE",
"420 -75 CURVE SMOOTH",
"424 -129 OFFCURVE",
"413 -150 OFFCURVE",
"396 -163 CURVE"
);
},
{
closed = 1;
nodes = (
"312 436 OFFCURVE",
"173 337 OFFCURVE",
"96 386 CURVE",
"153 555 OFFCURVE",
"312 676 OFFCURVE",
"500 676 CURVE SMOOTH",
"688 676 OFFCURVE",
"848 554 OFFCURVE",
"904 384 CURVE",
"845 350 OFFCURVE",
"680 436 OFFCURVE",
"497 436 CURVE SMOOTH"
);
},
{
closed = 1;
nodes = (
"586 -148 OFFCURVE",
"574 -123 OFFCURVE",
"583 -51 CURVE SMOOTH",
"583 -49 OFFCURVE",
"583 -47 OFFCURVE",
"583 -46 CURVE",
"606 56 OFFCURVE",
"651 123 OFFCURVE",
"790 175 CURVE",
"792 176 OFFCURVE",
"796 177 OFFCURVE",
"803 179 CURVE SMOOTH",
"864 198 OFFCURVE",
"901 176 OFFCURVE",
"915 156 CURVE",
"880 0 OFFCURVE",
"759 -124 OFFCURVE",
"604 -163 CURVE"
);
}
);
width = 1000;
}
);
unicode = 0026;
},
